<?xml version="1.0" encoding="UTF-8"?>
<svg version="1.1" viewBox="0 0 2000 2000" width="500" height="500" xmlns="http://www.w3.org/2000/svg">
<path transform="translate(863,48)" d="m0 0 7 3 25 14 23 13 26 15 15 9 17 10 28 16 44 26 24 14 56 32 24 14 56 32 15 10 1 2v134l-1 137-5-1-28-16-23-13-27-15-21-12-29-16-46-26-25-14-24-14-25-14-28-16-27-15-26-15-20-11-8 2-22 12-28 15-58 32-26 14-22 12-34 18-22 12-27 14-22 12-32 17-26 14-14 8-4 3 9 6 27 15 17 10 23 13 21 12 16 9 27 15 6 7v276l-6-2-25-14-58-32-52-29-17-9-5-2-1 301-13 8-23 12-22 12-33 17-19 10-27 14-22 12-42 22-27 14-11 6h-5l-1-5v-837l3-5 17-10 32-17 10-6 16-8 22-12 28-15 34-18 76-41 23-13 25-13 22-12 27-15 26-14 22-12 28-15 48-26 18-10 26-14 22-12 66-35z" fill="#FDFCFD"/>
<path transform="translate(1733,585)" d="m0 0 4 1 1 226v611l-3 3-29 17-24 13-16 9-45 25-29 15-19 11-27 15-21 12-26 14-4-1-1-217v-353l-6 2-19 10-17 10-28 15-29 16-27 14-22 12-54 29-17 10-32 17-21 12-25 13-22 12-9-2-27-14-43-25-24-13-15-9-20-11-17-10-25-14-23-13-24-13-25-14-27-16-25-14-23-13-43-24-20-11-21-12-18-10-26-14-17-11-3-3-1-3v-269l3-1 13 5 22 12 21 12 54 30 23 13 44 24 18 10 25 14 24 14 29 16 27 15 17 10 28 15 23 13 25 14 14 8 16 9 22 12 13 8 5 2 11-1 23-11 18-10 25-13 19-10 22-11 19-10 28-15 27-14 22-11 22-12 40-20 22-12 23-12 16-8 27-14 34-18 43-22 19-10 20-10 19-10 25-13 22-12 19-10z" fill="#8916F7"/>
<path transform="translate(701,949)" d="m0 0 5 1 22 12 13 8 28 16 22 12 17 10 45 26 23 13 21 12 26 14 21 13 1 1v185l-1 544-7 8-15 9-23 13-22 12-46 25-28 15-18 10-56 30-17 9-9 4h-2l-1-3v-997z" fill="#8916F7"/>
<path transform="translate(708,1816)" d="m0 0 2 1 1 13 3 2 2 6 4 5-3 1 4 6-2 13-1 13-4 4 3 2-1 4h-2v6l4 4v7h2l1 5 4-1-1 6 5-2 1-3 10-1 1-3 7-2v-2l12-6 6-2 6-4 10-1h2l3-2h3v-2h2l1-2 5-1 13-5 9-5 12-6 5-3 4-1v-2l9-3 1-2 8-3 8-4 9-6 7-2 4-2 9-1 3-1h3v-2h6l-1 3 3 3v2l-29 16-19 10-18 10-32 17-23 13-34 18-26 14-17 9-4-1v-30l1-5v-3l1-4-1-1-1-22-1-8-1-2v-5l-1-1-1-19 1-2v-19l3-2z" fill="#A235FA"/>
<path transform="translate(1481,986)" d="m0 0 4 1-1 3-20 11-21 12-23 12-16 9-28 15-34 18-22 12-28 15-17 10-32 17-21 12-25 13-22 12-9-2-27-14-43-25-24-13-15-9-20-11-17-10-25-14-1-2 2-1-7-2-4-4-7-3-2-3-6-2-4-3h-3l-2-5 7 1 2 2 6 2v3l7 1 1 2 7 2 8 5h2v2l5 2v2h5l1 4 5 1 16 8 3 1v2l10 4 4 3 18 9v2l6 2 7 4 9 5 3 1v2l6 2 12 7 18 10 3 1v2l7 2 10 6 14 7 7 4h7l10-6 14-7 10-6 6-3h2v-2h2l1-2 7-3 12-6 14-8 16-8 10-4 4-2 5-2 6-3 5-3 3-3 4-1 3-3 5-1 4-4h3 2l2-4h3v-2l10-5 10-6 5-2v-2l26-13 16-9 12-6 4-4 5-1 3-3 6-2 6-4h3v-2h3v-2l7-3 8-5 10-5h4v-2l5-2z" fill="#A335FA"/>
<path transform="translate(833,1662)" d="m0 0 4 2 5-1 1 5h-2l-1 4-4-3-3 6-5-1v8l1 2h-2l1 9 2 22 1 1 3-7 2-4h2v2l4-1 1 4h2v11l-1 4h2l2 4 2-2 1-15 2-4 4-1 1 3v19l3 5v2l4-2 3-5 3 1 1 4-2 1 1 9h2v2l5 2 2-1 3 8 4 6 1 1h9l2-8 1-1 1-12 3-4 1 2v15h-2v12h4l-1-4 1-6-1-3v-3l2-4 2 7-1 3 5 1 1-10 4-1 4 6-1 5-1 4-1 8h-2v-2l-3 2-1 8-1 4v7l-8-1v-3l-2-1 2-1 1-5h-6l-2-4-3 3-3-1v-2l-11-3h-2v-2l-12-3v-2h-2l-2-2-4 3h-2v2h-2v2l-8 1h-4l-3-3-2-8-5-1-3 3h-7l-4 2v2l-5 1v2h-2l-3 3h-2l-1 2-4-5 1-5-1-7 4-4v-8h2l-1-11-3-4h2v-2h-2v-2l4-1-1 3h3l2 4h2l1-3 3 5 1 2 4 1 1-8v-7l-2-4 1-5 3-1v-6l-3 1-1-3 2-8-2-1-1-4-2-3-1-3v-3l2-6 4-4h2l1-5h2v-2z" fill="#A234FA"/>
<path transform="translate(732,1583)" d="m0 0 4 1 4 2-5 2 1 3-3 3 3 4h-3l3 4h2l1 3-2 7 2 1-1 2 4 2h3l1 1 3 1-1 4-6 1v7l6-1 2 5 1 11 4 2 2 3 3-1v-3l6 1 3 2v4l2 1 1-5-4-1-2-5h3v-2l3-1v2h2l1-2v5l1 3v5 4l1 2-2 1-4 8-1 5h-2l1 3-1 3h-3l-2-4 2-1-5-1v2h2l2 4-2 3-5-2-5 2-1 3 2 1-2 2 1 3-5 2v-8h2l1-5-3-6h-4v2l-6 1-3-4h-2l-2 2v-2l-3 1v-2l-5 4-4-1-1 2-5-5 1-4-4-1 2 7-2 3-1 9-2 10-2-4 1-30 2-6-2-10-1-7 1-3h2v-4l-1-5 1-10 2-7-2-9-1-4 1-2 3 2 1-4 2 2v2l1 4 5-6 1-1 2-3h-2v-2l6-1 1-3h2v-2z" fill="#A234FA"/>
<path transform="translate(901,1611)" d="m0 0 7 1v8l2 3 5-1 2 1 1-4 2-1-1-2 4-3h3l3 3v3l4 1 2 13 1 6 1 4v12l-3-3-2-11-4-4-3 1-2 6-2-1 1-7 1-6v-2l-4-1h-3l-1 2v2h-3l-1 13 1 10h2v5h2l3 9 4 2 2 5h-3v-2l-4 2-2 3-2-2v5l-2 1-1-6v-2h4v-7l-4 1v-2l-3 2v5 2 6l-2 2v3l-1 4-2-4 1-2h-2l-1 2-1-4 1-8-1-2 2-13 2 1 1-2h-2l-2-5-3-4v-4l-2 9v10l-1 2 2 4-1 3-4-1-3 1-1 5v9l1 5-3 3h-2l-1 2-1-5 1-8-1-7-4-2 1-3-3-1-1-3-7 1-2-6h3l2-6-4-2-3-10-4-2 1-9 6-8 6-1h3l3-2-1-8 3-3 4 1 1 2h3l-1 4 2 1-3 3h-4l-1 6 5 1 6-3-1-4 4-3 1-6h4z" fill="#A234FA"/>
<path transform="translate(1726,1420)" d="m0 0 1 3 7-2v2l3 1-4 3-15 9-16 9-81 45-29 15-19 11-27 15-21 12-22 12-3-1 1-7 3-4 8-2-5-3v-2h-3l-1 2 1-8 1-2h2l-1 5 2-1 2 5 6-1 7-2 6-2 1-3 4-1 2-3 4-1 3-2 6-3h5l1-2-2-1 5-1 1-2h2l2-2h3l3-3 2-1v-2l5 1-1-3 9-2v-2l5-1 3-1-2-2 9-1 5-3 5-2 5-3 5-2h-3l-2-1 9-6 5-3 5-1 4-2 2-2 2-1v-2l7-1v-2l4-2h3v-2l7-2 3-3 5-1 3-3 5-2 4-2 8-3 2-2 5-3 3-1 1-2h3l1-2h3v-2h3v-2l7-3 4 1 1-2 3-1z" fill="#A336FA"/>
<path transform="translate(506,791)" d="m0 0h1l-1 301-3 1 1-15v-253l1-29z" fill="#A335FB"/>
<path transform="translate(789,1700)" d="m0 0 2 2 3 13 1 12-1 3-2 11-3 1v-3h-2l-3-8-3-2-1 4h-2v-13h3l2 2 2-6h-2l-1 3-4-1v-7l5-1 2-1 2-8z" fill="#A234FA"/>
<path transform="translate(802,1656)" d="m0 0 2 2-1 6 2 2-1 7 4 2h-2v5l-5 2-11 1-2-2-1 3h-1l-1-7h-2l-4 1-1-3 1-2 3-1 3-5 6-1 4-3h2l2-4z" fill="#A234FA"/>
<path transform="translate(918,1781)" d="m0 0 4 2 2 10v3h-2l-2 4-5 5-5 1-1-4 1-2-5 2-4 4v-5l-5 2-2 1-1-6 2-5 9 1v-2l6-1h3l4-6z" fill="#A234FA"/>
<path transform="translate(837,1714)" d="m0 0h4l2 1 1 4v13l1 2h-2l1 4-4 1-2 4-4 1-5-1-2-9 3-4 1-9h2l1-4z" fill="#8916F7"/>
<path transform="translate(1031,1079)" d="m0 0 6 1v2l5 1 5 4 6 2v2l8 2v2l7 2 5 3 1 2 7 3 8 4v2l8 2v2l6 2 6 3 2 3 7 3 11 6 1 2 7 3 10 6 7 4 3 3-5-1-27-15-22-13-36-20-35-20z" fill="#8C19F7"/>
<path transform="translate(801,1893)" d="m0 0 3 1-1 4-18 10-20 11h-8l1-3h2v-2l7-4 4 1v-2h2l2-4 3-3 5 1v-2l6-1 4-4 5-1z" fill="#8E1DF7"/>
<path transform="translate(700,1884)" d="m0 0h1l1 17 2 4 1 19v12h-2l1 6-1 4 4 1-1 3-5 1-1-3z" fill="#BF75FB"/>
<path transform="translate(734,1524)" d="m0 0 3 2v3h-2l1 5h1v6l-2 4-2 1v6h3l3 2v2l-3 1v4l2 1-6-1-1-4h-2l1-16-2-1 4-2 2-9-2-1z" fill="#A234FA"/>
<path transform="translate(1112,1124)" d="m0 0 5 1 5 3 7 4 1 2 7 3 10 6 7 4 3 3-5-1-27-15-13-8z" fill="#8E1CF7"/>
<path transform="translate(739,638)" d="m0 0 14 7 12 7 4 5h-3l-9-4v-2l-5-1-6-4v-2l-4-1-3-3z" fill="#A53AFB"/>
<path transform="translate(868,1697)" d="m0 0 4 1 1 2v16l-1 5-4-1z" fill="#9D2FFA"/>
<path transform="translate(966,1039)" d="m0 0 5 4 6 2 1 3 5 1 6 4v2l7 1v3l-10-4-21-12-1-3z" fill="#8C1AF7"/>
<path transform="translate(907,1708)" d="m0 0 2 4v9l-2 5v10l-2 2-1-6 1-12h-2v-7l2-3h2z" fill="#A335FB"/>
<path transform="translate(916,1667)" d="m0 0 6 2 3 5-3 1v-2l-4 2-2 3-2-2v5l-2 1-1-6v-2h4v-6z" fill="#A335FB"/>
<path transform="translate(908,1666)" d="m0 0 4 1 4-1-1 8h-4l-1 3-4-3 1-5z" fill="#8B18F7"/>
<path transform="translate(883,1664)" d="m0 0 6 1-1 5v3l-2 1-2 3-4-8z" fill="#8916F7"/>
<path transform="translate(1687,609)" d="m0 0v3l-19 10-8 4h-2v-2z" fill="#A233FA"/>
<path transform="translate(920,1827)" d="m0 0 2 1v2h2v2l-12 6-1-4v-3h5l1-3z" fill="#9F30FA"/>
<path transform="translate(733,1562)" d="m0 0 2 1 2 4 3 3h-3-1v6l-3 2-3-1 2-8z" fill="#A335FB"/>
<path transform="translate(874,1721)" d="m0 0h2v2l3 1v9l-4 2-2-7z" fill="#A335FB"/>
<path transform="translate(928,1702)" d="m0 0h1v28l-2-1-1-18z" fill="#A335FB"/>
<path transform="translate(1112,1124)" d="m0 0 5 1 5 3 7 4 2 5-14-8-5-3z" fill="#8F1EF7"/>
<path transform="translate(897,999)" d="m0 0h6l1 3 6 1 1 4-4 1-3-3-8-4z" fill="#A335FB"/>
<path transform="translate(914,1692)" d="m0 0h1v16l1 1v7h-3v-23z" fill="#A335FB"/>
<path transform="translate(879,1852)" d="m0 0 4 1-4 4-9 5-5-1 5-5 7-2z" fill="#9221F8"/>
<path transform="translate(905,1753)" d="m0 0 3 3-1 10h-4v-12z" fill="#8B18F7"/>
<path transform="translate(868,1697)" d="m0 0 4 1 1 2v10l-2-2h-3z" fill="#A234FA"/>
<path transform="translate(1515,698)" d="m0 0 1 2-3 3h-2v2l-5 2h-4v-2z" fill="#A234FA"/>
<path transform="translate(746,1713)" d="m0 0h3v10l-3 2v-2h-2l2-8z" fill="#A335FB"/>
<path transform="translate(750,1683)" d="m0 0 1 3 2 1-2 2 1 3-5 2v-8h2z" fill="#A335FB"/>
<path transform="translate(704,1697)" d="m0 0h3l1 3-2 8h-2l-1-10z" fill="#A234FA"/>
<path transform="translate(880,1697)" d="m0 0 4 3-3 4-1 10h-1l-1-10-1-2h2z" fill="#A335FB"/>
<path transform="translate(1654,626)" d="m0 0 2 1-2 3-7 4-3-1 4-4z" fill="#9828F9"/>
<path transform="translate(886,1639)" d="m0 0 3 1v5h-2v2h-2v-2l-3-1h2z" fill="#8916F7"/>
<path transform="translate(1016,1070)" d="m0 0 8 2 2 3 6 2-1 2-6-2-9-6z" fill="#8E1CF7"/>
<path transform="translate(783,1681)" d="m0 0h2v11l-2 2v-3l-2-1h2v-2l-2-1z" fill="#A335FB"/>
<path transform="translate(505,1078)" d="m0 0h1v14l-3 1 1-14z" fill="#A942FB"/>
<path transform="translate(868,1682)" d="m0 0 3 1-2 13-2-1v-10z" fill="#A335FB"/>
<path transform="translate(1478,717)" d="m0 0h2v2l-6 4-9 2 3-3z" fill="#A335FB"/>
<path transform="translate(702,1941)" d="m0 0 2 1-1 4 4 1-1 3-5 1v-7z" fill="#A237FA"/>
<path transform="translate(1105,843)" d="m0 0 6 2 5 4-5 1-2-4-4-2z" fill="#9E33F9"/>
<path transform="translate(903,1768)" d="m0 0h4v5l-4 2-2-4z" fill="#8916F7"/>
<path transform="translate(1102,1118)" d="m0 0 5 1 5 5-2 1-8-5z" fill="#8B19F7"/>
<path transform="translate(727,1595)" d="m0 0 2 2-1 2 2 1-4 1-4-2v-2z" fill="#8A17F7"/>
<path transform="translate(970,767)" d="m0 0 7 3v4l-5-2v-2h-4v-2z" fill="#A035FA"/>
</svg>
